<svg class="icon" viewBox="0 0 1024 1024" version="1.1" xmlns="http://www.w3.org/2000/svg"  width="40" height="40"><path d="M850.431646 737.621026c62.506641 0 112.81062 50.346646 112.810619 112.81062s-50.346646 112.81062-112.810619 112.810619a112.597286 112.597286 0 0 1-112.81062-112.810619 112.597286 112.597286 0 0 1 112.81062-112.81062M511.999787 312.405203a199.63725 199.63725 0 1 1-0.085334 399.2745A199.63725 199.63725 0 0 1 511.999787 312.405203M285.482548 881.663633a143.35994 143.35994 0 0 1-143.189274-143.189274v-113.663953H0v113.663953A285.183881 285.183881 0 0 0 285.482548 1023.999573h113.706619v-142.33594H285.482548M142.335941 285.482548a143.35994 143.35994 0 0 1 143.189273-143.189274h113.663953V0H285.482548A285.183881 285.183881 0 0 0 0 285.482548v113.706619h142.335941V285.482548m596.181085-143.189274a143.35994 143.35994 0 0 1 143.146607 143.189274v113.706619H1023.999573V285.482548A285.183881 285.183881 0 0 0 738.474359 0h-113.663953v142.335941h113.663953z"  fill="#0fd6c5"></path></svg>