<svg class="icon" viewBox="0 0 1024 1024" version="1.1" xmlns="http://www.w3.org/2000/svg"  width="16" height="16"><path d="M704 512a192 192 0 1 1-384 0 192 192 0 0 1 384 0zM896 821.333333a96 96 0 1 1-192 0 96 96 0 0 1 192 0zM426.666667 96h-85.333334C205.845333 96 96 205.845333 96 341.333333v85.333334h64v-85.333334A181.333333 181.333333 0 0 1 341.333333 160h85.333334v-64zM597.333333 160h85.333334a181.333333 181.333333 0 0 1 181.333333 181.333333v85.333334h64v-85.333334c0-135.488-109.845333-245.333333-245.333333-245.333333h-85.333334v64zM426.666667 928v-64h-85.333334A181.333333 181.333333 0 0 1 160 682.666667v-85.333334h-64v85.333334c0 135.488 109.845333 245.333333 245.333333 245.333333h85.333334z" fill="#bfbfbf"></path></svg>